<?xml version="1.0" encoding="UTF-8" standalone="no"?>
<!-- Created with Inkscape (http://www.inkscape.org/) -->
<svg xmlns:dc="http://purl.org/dc/elements/1.1/" xmlns:cc="http://creativecommons.org/ns#" xmlns:rdf="http://www.w3.org/1999/02/22-rdf-syntax-ns#" xmlns:svg="http://www.w3.org/2000/svg" xmlns="http://www.w3.org/2000/svg" version="1.1" width="32" height="32" id="svg3116">
  <defs id="defs3118"/>
  <metadata id="metadata3121">
    <rdf:RDF>
      <cc:Work rdf:about="">
        <dc:format>image/svg+xml</dc:format>
        <dc:type rdf:resource="http://purl.org/dc/dcmitype/StillImage"/>
        <dc:title/>
      </cc:Work>
    </rdf:RDF>
  </metadata>
  <g transform="translate(0,-1020.3622)" id="layer1">
    <g transform="matrix(0,0.3,-0.3,0,237.0664,922.55734)" id="g4218" style="display:inline">
      <rect width="69.999992" height="10" rx="5" ry="4.7643294" x="-760.86591" y="416.25699" transform="matrix(0,-1,1,0,0,0)" id="rect4198" style="fill:#000000;fill-opacity:1;stroke:none"/>
      <path d="m 785,775.17195 a 12.171954,12.171954 0 0 1 -8.60687,-20.77882" transform="matrix(0,-0.81623434,0.81623434,0,-211.47303,1395.6747)" id="path4200" style="fill:none;stroke:#000000;stroke-width:12.25138378;stroke-linecap:round;stroke-miterlimit:0;stroke-opacity:1;stroke-dasharray:none"/>
      <rect width="69.999992" height="10" rx="5" ry="4.7643294" x="712.98053" y="-342.32742" transform="matrix(0,1,-1,0,0,0)" id="rect4206" style="fill:#000000;fill-opacity:1;stroke:none"/>
      <path d="m 785,775.17195 a 12.171954,12.171954 0 0 1 -8.60687,-20.77882" transform="matrix(0,0.81623434,-0.81623434,0,970.05745,78.171752)" id="path4208" style="fill:none;stroke:#000000;stroke-width:12.25138378;stroke-linecap:round;stroke-miterlimit:0;stroke-opacity:1;stroke-dasharray:none"/>
      <rect width="80" height="10" rx="5" ry="4.7643294" x="-829.56323" y="-257.87775" transform="matrix(-0.70710678,-0.70710678,0.70710678,-0.70710678,0,0)" id="rect4202" style="fill:#000000;fill-opacity:1;stroke:none"/>
    </g>
  </g>
</svg>